<svg xmlns="http://www.w3.org/2000/svg">

    <symbol id='task' viewBox="0 0 20 20" fill="none">
        <path
            d="M12.8536 9.85355C13.0488 9.65829 13.0488 9.34171 12.8536 9.14645C12.6583 8.95118 12.3417 8.95118 12.1464 9.14645L9 12.2929L7.85355 11.1464C7.65829 10.9512 7.34171 10.9512 7.14645 11.1464C6.95118 11.3417 6.95118 11.6583 7.14645 11.8536L8.64645 13.3536C8.84171 13.5488 9.15829 13.5488 9.35355 13.3536L12.8536 9.85355ZM8.5 2C7.84689 2 7.29127 2.4174 7.08535 3H5.5C4.67157 3 4 3.67157 4 4.5V16.5C4 17.3284 4.67157 18 5.5 18H14.5C15.3284 18 16 17.3284 16 16.5V4.5C16 3.67157 15.3284 3 14.5 3H12.9146C12.7087 2.4174 12.1531 2 11.5 2H8.5ZM8 3.5C8 3.22386 8.22386 3 8.5 3H11.5C11.7761 3 12 3.22386 12 3.5C12 3.77614 11.7761 4 11.5 4H8.5C8.22386 4 8 3.77614 8 3.5ZM5.5 4H7.08535C7.29127 4.5826 7.84689 5 8.5 5H11.5C12.1531 5 12.7087 4.5826 12.9146 4H14.5C14.7761 4 15 4.22386 15 4.5V16.5C15 16.7761 14.7761 17 14.5 17H5.5C5.22386 17 5 16.7761 5 16.5V4.5C5 4.22386 5.22386 4 5.5 4Z"
            fill="#212121" />
    </symbol>

    <symbol id='moon' viewBox="0 0 24 24">
        <g>
            <path
                d="M12.3 22h-.1a10.31 10.31 0 0 1-7.34-3.15 10.46 10.46 0 0 1-.26-14 10.13 10.13 0 0 1 4-2.74 1 1 0 0 1 1.06.22 1 1 0 0 1 .24 1 8.4 8.4 0 0 0 1.94 8.81 8.47 8.47 0 0 0 8.83 1.94 1 1 0 0 1 1.27 1.29A10.16 10.16 0 0 1 19.6 19a10.28 10.28 0 0 1-7.3 3z"></path>
        </g>
    </symbol>

    <symbol viewBox="0 0 47.5 47.5" id="sun">
        <defs>
            <clipPath id="a">
                <path d="M0 38h38V0H0v38Z"></path>
            </clipPath>
        </defs>
        <g fill="#ffac33" clip-path="url(#a)" transform="matrix(1.25 0 0 -1.25 0 47.5)">
            <path
                d="M17 35s0 2 2 2 2-2 2-2v-2s0-2-2-2-2 2-2 2v2zM35 21s2 0 2-2-2-2-2-2h-2s-2 0-2 2 2 2 2 2h2zM5 21s2 0 2-2-2-2-2-2H3s-2 0-2 2 2 2 2 2h2zM10.121 29.706s1.414-1.414 0-2.828-2.828 0-2.828 0l-1.415 1.414s-1.414 1.414 0 2.829c1.415 1.414 2.829 0 2.829 0l1.414-1.415ZM31.121 8.707s1.414-1.414 0-2.828-2.828 0-2.828 0l-1.414 1.414s-1.414 1.414 0 2.828 2.828 0 2.828 0l1.414-1.414ZM30.708 26.879s-1.414-1.414-2.828 0 0 2.828 0 2.828l1.414 1.414s1.414 1.414 2.828 0 0-2.828 0-2.828l-1.414-1.414ZM9.708 5.879s-1.414-1.414-2.828 0 0 2.828 0 2.828l1.414 1.414s1.414 1.414 2.828 0 0-2.828 0-2.828L9.708 5.879ZM17 5s0 2 2 2 2-2 2-2V3s0-2-2-2-2 2-2 2v2zM29 19c0 5.523-4.478 10-10 10-5.523 0-10-4.477-10-10 0-5.522 4.477-10 10-10 5.522 0 10 4.478 10 10"></path>
        </g>
    </symbol>
</svg>