<svg xmlns="http://www.w3.org/2000/svg">

    <symbol id='task' viewBox="0 0 20 20" fill="none">
        <path
            d="M12.8536 9.85355C13.0488 9.65829 13.0488 9.34171 12.8536 9.14645C12.6583 8.95118 12.3417 8.95118 12.1464 9.14645L9 12.2929L7.85355 11.1464C7.65829 10.9512 7.34171 10.9512 7.14645 11.1464C6.95118 11.3417 6.95118 11.6583 7.14645 11.8536L8.64645 13.3536C8.84171 13.5488 9.15829 13.5488 9.35355 13.3536L12.8536 9.85355ZM8.5 2C7.84689 2 7.29127 2.4174 7.08535 3H5.5C4.67157 3 4 3.67157 4 4.5V16.5C4 17.3284 4.67157 18 5.5 18H14.5C15.3284 18 16 17.3284 16 16.5V4.5C16 3.67157 15.3284 3 14.5 3H12.9146C12.7087 2.4174 12.1531 2 11.5 2H8.5ZM8 3.5C8 3.22386 8.22386 3 8.5 3H11.5C11.7761 3 12 3.22386 12 3.5C12 3.77614 11.7761 4 11.5 4H8.5C8.22386 4 8 3.77614 8 3.5ZM5.5 4H7.08535C7.29127 4.5826 7.84689 5 8.5 5H11.5C12.1531 5 12.7087 4.5826 12.9146 4H14.5C14.7761 4 15 4.22386 15 4.5V16.5C15 16.7761 14.7761 17 14.5 17H5.5C5.22386 17 5 16.7761 5 16.5V4.5C5 4.22386 5.22386 4 5.5 4Z"
            fill="#212121" />
    </symbol>

    <symbol id='moon' viewBox="0 0 24 24">
        <g>
            <path
                d="M12.3 22h-.1a10.31 10.31 0 0 1-7.34-3.15 10.46 10.46 0 0 1-.26-14 10.13 10.13 0 0 1 4-2.74 1 1 0 0 1 1.06.22 1 1 0 0 1 .24 1 8.4 8.4 0 0 0 1.94 8.81 8.47 8.47 0 0 0 8.83 1.94 1 1 0 0 1 1.27 1.29A10.16 10.16 0 0 1 19.6 19a10.28 10.28 0 0 1-7.3 3z"></path>
        </g>
    </symbol>

    <symbol viewBox="0 0 47.5 47.5" id="sun">
        <defs>
            <clipPath id="a">
                <path d="M0 38h38V0H0v38Z"></path>
            </clipPath>
        </defs>
        <g fill="#ffac33" clip-path="url(#a)" transform="matrix(1.25 0 0 -1.25 0 47.5)">
            <path
                d="M17 35s0 2 2 2 2-2 2-2v-2s0-2-2-2-2 2-2 2v2zM35 21s2 0 2-2-2-2-2-2h-2s-2 0-2 2 2 2 2 2h2zM5 21s2 0 2-2-2-2-2-2H3s-2 0-2 2 2 2 2 2h2zM10.121 29.706s1.414-1.414 0-2.828-2.828 0-2.828 0l-1.415 1.414s-1.414 1.414 0 2.829c1.415 1.414 2.829 0 2.829 0l1.414-1.415ZM31.121 8.707s1.414-1.414 0-2.828-2.828 0-2.828 0l-1.414 1.414s-1.414 1.414 0 2.828 2.828 0 2.828 0l1.414-1.414ZM30.708 26.879s-1.414-1.414-2.828 0 0 2.828 0 2.828l1.414 1.414s1.414 1.414 2.828 0 0-2.828 0-2.828l-1.414-1.414ZM9.708 5.879s-1.414-1.414-2.828 0 0 2.828 0 2.828l1.414 1.414s1.414 1.414 2.828 0 0-2.828 0-2.828L9.708 5.879ZM17 5s0 2 2 2 2-2 2-2V3s0-2-2-2-2 2-2 2v2zM29 19c0 5.523-4.478 10-10 10-5.523 0-10-4.477-10-10 0-5.522 4.477-10 10-10 5.522 0 10 4.478 10 10"></path>
        </g>
    </symbol>

    <symbol
        id='task-add'
        viewBox="0 0 64 64" enable-background="new 0 0 64 64">
        <line fill="none" stroke-width="5" stroke-miterlimit="10" x1="32" y1="27"
            x2="32" y2="45" />
        <line fill="none" stroke-width="5" stroke-miterlimit="10" x1="41" y1="36"
            x2="23" y2="36" />
        <polyline fill="none" stroke-width="5" stroke-miterlimit="10"
            points="23,8 10,8 10,63 54,63 54,8 41,8 " />
        <polygon fill="none" stroke-width="5" stroke-miterlimit="10"
            points="36,5 36,1 28,1 28,5 24,5 22,13 42,13 40,5 
	" />
    </symbol>

    <symbol id='user' viewBox="0 0 24 24" fill='none'>
        <path
            d="M16 7C16 9.20914 14.2091 11 12 11C9.79086 11 8 9.20914 8 7C8 4.79086 9.79086 3 12 3C14.2091 3 16 4.79086 16 7Z"
            stroke-width="2" stroke-linecap="round" stroke-linejoin="round" />
        <path d="M12 14C8.13401 14 5 17.134 5 21H19C19 17.134 15.866 14 12 14Z"
            stroke-width="2" stroke-linecap="round" stroke-linejoin="round" />
    </symbol>


    <symbol id='complited' viewBox="0 0 25 25" fill="none">
        <path fill-rule="evenodd" clip-rule="evenodd"
            d="M5.20834 12.5002C5.20859 9.02152 7.6661 6.02747 11.078 5.34905C14.4898 4.67062 17.9058 6.49678 19.2368 9.71072C20.5678 12.9247 19.4432 16.6313 16.5507 18.5637C13.6582 20.4962 9.80341 20.1163 7.34376 17.6564C5.97634 16.2889 5.2082 14.4341 5.20834 12.5002Z"
            stroke-width="1.5" stroke-linecap="round" stroke-linejoin="round" />
        <path d="M8.85419 12.5002L11.2844 14.9304L16.1459 10.0699"
            stroke-width="1.5" stroke-linecap="round" stroke-linejoin="round" />
    </symbol>

    <symbol id='delete' viewBox="0 0 25 25" fill="none">
        <path fill-rule="evenodd" clip-rule="evenodd"
            d="M16.8406 9.37512H8.15936C7.68014 9.37512 7.29166 9.76361 7.29166 10.2428V17.1876C7.29166 18.6259 8.45758 19.7918 9.89582 19.7918H15.1042C15.7948 19.7918 16.4572 19.5174 16.9456 19.029C17.434 18.5407 17.7083 17.8783 17.7083 17.1876V10.2428C17.7083 9.76361 17.3198 9.37512 16.8406 9.37512Z"
            stroke="currentColor" stroke-width="1.5" stroke-linecap="round" stroke-linejoin="round"
            fill="none" />
        <path fill-rule="evenodd" clip-rule="evenodd"
            d="M15.625 7.29173L15.5146 7.07194C14.9436 5.9298 13.7764 5.20831 12.4995 5.20831C11.2226 5.20831 10.0553 5.9298 9.48437 7.07194L9.375 7.29173H15.625Z"
            stroke="currentColor" stroke-width="1.5" stroke-linecap="round" stroke-linejoin="round"
            fill="none" />
        <path
            d="M11.5135 12.847C11.5135 12.4328 11.1777 12.097 10.7635 12.097C10.3493 12.097 10.0135 12.4328 10.0135 12.847H10.7635H11.5135ZM10.0135 16.3189C10.0135 16.7331 10.3493 17.0689 10.7635 17.0689C11.1777 17.0689 11.5135 16.7331 11.5135 16.3189H10.7635H10.0135ZM14.9864 12.847C14.9864 12.4328 14.6507 12.097 14.2364 12.097C13.8222 12.097 13.4864 12.4328 13.4864 12.847H14.2364H14.9864ZM13.4864 16.3189C13.4864 16.7331 13.8222 17.0689 14.2364 17.0689C14.6507 17.0689 14.9864 16.7331 14.9864 16.3189H14.2364H13.4864ZM15.625 6.54181C15.2108 6.54181 14.875 6.8776 14.875 7.29181C14.875 7.70602 15.2108 8.04181 15.625 8.04181V7.29181V6.54181ZM17.7083 8.04181C18.1225 8.04181 18.4583 7.70602 18.4583 7.29181C18.4583 6.8776 18.1225 6.54181 17.7083 6.54181V7.29181V8.04181ZM9.37499 8.04181C9.7892 8.04181 10.125 7.70602 10.125 7.29181C10.125 6.8776 9.7892 6.54181 9.37499 6.54181V7.29181V8.04181ZM7.29166 6.54181C6.87744 6.54181 6.54166 6.8776 6.54166 7.29181C6.54166 7.70602 6.87744 8.04181 7.29166 8.04181V7.29181V6.54181ZM10.7635 12.847H10.0135V16.3189H10.7635H11.5135V12.847H10.7635ZM14.2364 12.847H13.4864V16.3189H14.2364H14.9864V12.847H14.2364ZM15.625 7.29181V8.04181H17.7083V7.29181V6.54181H15.625V7.29181ZM9.37499 7.29181V6.54181H7.29166V7.29181V8.04181H9.37499V7.29181Z"
            fill="currentColor" />
    </symbol>

    <symbol id='edit' viewBox="0 0 25 25">
        <path
            d="M13.3029 8.27086C13.562 7.94765 13.51 7.47563 13.1868 7.21659C12.8635 6.95754 12.3915 7.00956 12.1325 7.33277L13.3029 8.27086ZM6.57396 15.4674L7.14199 15.9572C7.14785 15.9504 7.15358 15.9435 7.15919 15.9365L6.57396 15.4674ZM6.39583 15.9029L5.64729 15.854L5.64664 15.8682L6.39583 15.9029ZM6.25 19.0518L5.5008 19.0171C5.49908 19.0544 5.50013 19.0917 5.50396 19.1288L6.25 19.0518ZM7.06979 19.7674L7.09431 20.517C7.14433 20.5154 7.19406 20.5088 7.24275 20.4972L7.06979 19.7674ZM10.1948 19.0268L10.3678 19.7567L10.3794 19.7537L10.1948 19.0268ZM10.5958 18.7727L11.1744 19.25L11.1809 19.2419L10.5958 18.7727ZM17.4726 11.396C17.7317 11.0729 17.6798 10.6008 17.3567 10.3417C17.0336 10.0826 16.5615 10.1345 16.3024 10.4576L17.4726 11.396ZM12.1358 7.33258C11.8766 7.6557 11.9285 8.12774 12.2516 8.38689C12.5747 8.64605 13.0468 8.59419 13.3059 8.27106L12.1358 7.33258ZM14.375 5.73932L14.9601 6.20856C14.9699 6.19627 14.9794 6.18367 14.9885 6.17078L14.375 5.73932ZM16.0719 5.40598L16.5517 4.82954C16.5278 4.80966 16.5027 4.79129 16.4765 4.77452L16.0719 5.40598ZM18.4021 7.34557L18.9329 6.81573C18.9166 6.79942 18.8996 6.78387 18.8819 6.76913L18.4021 7.34557ZM18.7531 8.20065L19.503 8.20477V8.20477L18.7531 8.20065ZM18.3927 9.05182L17.8677 8.51618C17.8465 8.53701 17.8265 8.55909 17.8078 8.58231L18.3927 9.05182ZM16.3026 10.4573C16.0433 10.7803 16.095 11.2524 16.418 11.5117C16.741 11.771 17.2131 11.7193 17.4724 11.3963L16.3026 10.4573ZM13.4626 7.69067C13.4012 7.28103 13.0193 6.99871 12.6097 7.0601C12.2 7.12148 11.9177 7.50333 11.9791 7.91297L13.4626 7.69067ZM16.9885 11.67C17.3989 11.6142 17.6864 11.2363 17.6307 10.8258C17.5749 10.4154 17.197 10.1279 16.7865 10.1836L16.9885 11.67ZM12.1325 7.33277L5.98873 14.9984L7.15919 15.9365L13.3029 8.27086L12.1325 7.33277ZM6.00593 14.9777C5.79436 15.2231 5.66851 15.5307 5.64742 15.8541L7.14424 15.9517C7.14411 15.9537 7.14332 15.9556 7.14199 15.9572L6.00593 14.9777ZM5.64664 15.8682L5.5008 19.0171L6.9992 19.0865L7.14503 15.9376L5.64664 15.8682ZM5.50396 19.1288C5.58735 19.9373 6.28192 20.5436 7.09431 20.517L7.04527 19.0178C7.02012 19.0187 6.99862 18.9999 6.99604 18.9749L5.50396 19.1288ZM7.24275 20.4972L10.3678 19.7566L10.0218 18.297L6.89683 19.0377L7.24275 20.4972ZM10.3794 19.7537C10.6912 19.6745 10.9697 19.4981 11.1744 19.2499L10.0173 18.2954C10.0155 18.2976 10.013 18.2992 10.0102 18.2999L10.3794 19.7537ZM11.1809 19.2419L17.4726 11.396L16.3024 10.4576L10.0107 18.3034L11.1809 19.2419ZM13.3059 8.27106L14.9601 6.20856L13.7899 5.27008L12.1358 7.33258L13.3059 8.27106ZM14.9885 6.17078C15.1425 5.95176 15.4418 5.89297 15.6672 6.03745L16.4765 4.77452C15.5747 4.19661 14.3777 4.43175 13.7615 5.30785L14.9885 6.17078ZM15.5921 5.98242L17.9223 7.92201L18.8819 6.76913L16.5517 4.82954L15.5921 5.98242ZM17.8713 7.87541C17.9563 7.96058 18.0037 8.07619 18.0031 8.19653L19.503 8.20477C19.5059 7.68424 19.3006 7.18414 18.9329 6.81573L17.8713 7.87541ZM18.0031 8.19653C18.0024 8.31686 17.9537 8.43195 17.8677 8.51618L18.9177 9.58746C19.2894 9.2231 19.5002 8.7253 19.503 8.20477L18.0031 8.19653ZM17.8078 8.58231L16.3026 10.4573L17.4724 11.3963L18.9776 9.52133L17.8078 8.58231ZM11.9791 7.91297C12.3405 10.3245 14.5722 11.9983 16.9885 11.67L16.7865 10.1836C15.1832 10.4015 13.7023 9.29084 13.4626 7.69067L11.9791 7.91297Z"
        />
    </symbol>

    <symbol id='pending' viewBox="0 0 24 24" fill='none'>
        <title>i</title>
        <g id="Complete">
            <g id="remove-circle">
                <g>
                    <circle id="_--Circle" data-name="--Circle" cx="12" cy="12" r="10" fill="none"
                        stroke-linecap="round" stroke-linejoin="round"
                        stroke-width="2" />
                    <line x1="15.5" y1="12" x2="8.5" y2="12" fill="none"
                        stroke-linecap="round" stroke-linejoin="round" stroke-width="2" />
                </g>
            </g>
        </g>
    </symbol>


    <symbol id='arrow-left' viewBox="0 0 24 24" fill="none">
        <path d="M15 7L10 12L15 17" stroke-width="1.5" stroke-linecap="round"
            stroke-linejoin="round" />
    </symbol>

</svg>